<?xml version="1.0" encoding="UTF-8" standalone="no"?>
<svg width="800" height="800" xmlns="http://www.w3.org/2000/svg" xmlns:xlink="http://www.w3.org/1999/xlink">
  <!-- Figure 2: Experimental Predictions and Verification -->
  <title>Testable Predictions of Information Ontology</title>
  
  <!-- Background and border -->
  <rect x="0" y="0" width="800" height="800" fill="#ffffff" stroke="#000000" stroke-width="2"/>
  
  <!-- Figure Title -->
  <text x="400" y="30" font-family="Arial" font-size="24" text-anchor="middle" font-weight="bold">Testable Predictions of Information Ontology</text>
  
  <!-- Panel A: Quantum Interference Modifications -->
  <rect x="20" y="60" width="760" height="220" fill="#f8f8f8" stroke="#000000" stroke-width="1"/>
  <text x="400" y="80" font-family="Arial" font-size="18" text-anchor="middle" font-weight="bold">A: Quantum Interference Modifications</text>
  
  <!-- Experimental setup schematic -->
  <rect x="40" y="100" width="160" height="140" fill="#f0f0f0" stroke="#000000" stroke-width="1"/>
  <text x="120" y="120" font-family="Arial" font-size="12" text-anchor="middle">Double-Slit Experiment</text>
  
  <!-- Source -->
  <circle cx="60" cy="160" r="10" fill="#ffcc66" stroke="#000000" stroke-width="1"/>
  <text x="60" y="145" font-family="Arial" font-size="10" text-anchor="middle">Source</text>
  
  <!-- Slits -->
  <rect x="100" y="140" width="4" height="15" fill="#000000" stroke="none"/>
  <rect x="100" y="165" width="4" height="15" fill="#000000" stroke="none"/>
  <text x="102" y="135" font-family="Arial" font-size="10" text-anchor="middle">Slits</text>
  
  <!-- Weak measurement device -->
  <rect x="125" y="130" width="10" height="50" fill="#99ccff" stroke="#000000" stroke-width="1"/>
  <text x="130" y="190" font-family="Arial" font-size="10" text-anchor="middle">Weak</text>
  <text x="130" y="200" font-family="Arial" font-size="10" text-anchor="middle">Measurement</text>
  
  <!-- Screen -->
  <rect x="160" y="130" width="4" height="50" fill="#cccccc" stroke="#000000" stroke-width="1"/>
  <text x="162" y="190" font-family="Arial" font-size="10" text-anchor="middle">Screen</text>
  
  <!-- Interference pattern graph -->
  <rect x="230" y="100" width="320" height="140" fill="#ffffff" stroke="#000000" stroke-width="1"/>
  
  <!-- Coordinate axes -->
  <line x1="250" y1="200" x2="530" y2="200" stroke="#000000" stroke-width="1"/>
  <line x1="250" y1="200" x2="250" y2="120" stroke="#000000" stroke-width="1"/>
  <text x="390" y="215" font-family="Arial" font-size="12" text-anchor="middle">Position (μm)</text>
  <text x="235" y="160" font-family="Arial" font-size="12" text-anchor="middle" transform="rotate(-90,235,160)">Probability</text>
  
  <!-- Standard QM prediction -->
  <path d="M250 180 C270 160,290 200,310 160 C330 120,350 200,370 160 C390 120,410 200,430 160 C450 120,470 200,490 160 C510 180,530 160,530 180" stroke="#0000ff" stroke-width="2" stroke-dasharray="5,3" fill="none"/>
  
  <!-- Information ontology prediction -->
  <path d="M250 180 C270 150,290 210,310 150 C330 110,350 210,370 150 C390 110,410 210,430 150 C450 110,470 210,490 150 C510 170,530 150,530 180" stroke="#ff0000" stroke-width="2" fill="none"/>
  
  <!-- Experimental data points with error bars -->
  <circle cx="270" cy="152" r="3" fill="#000000" stroke="none"/>
  <line x1="270" y1="147" x2="270" y2="157" stroke="#000000" stroke-width="1"/>
  <circle cx="310" cy="148" r="3" fill="#000000" stroke="none"/>
  <line x1="310" y1="143" x2="310" y2="153" stroke="#000000" stroke-width="1"/>
  <circle cx="350" cy="200" r="3" fill="#000000" stroke="none"/>
  <line x1="350" y1="195" x2="350" y2="205" stroke="#000000" stroke-width="1"/>
  <circle cx="390" cy="115" r="3" fill="#000000" stroke="none"/>
  <line x1="390" y1="110" x2="390" y2="120" stroke="#000000" stroke-width="1"/>
  <circle cx="430" cy="152" r="3" fill="#000000" stroke="none"/>
  <line x1="430" y1="147" x2="430" y2="157" stroke="#000000" stroke-width="1"/>
  <circle cx="470" cy="205" r="3" fill="#000000" stroke="none"/>
  <line x1="470" y1="200" x2="470" y2="210" stroke="#000000" stroke-width="1"/>
  <circle cx="510" cy="167" r="3" fill="#000000" stroke="none"/>
  <line x1="510" y1="162" x2="510" y2="172" stroke="#000000" stroke-width="1"/>
  
  <!-- Legend -->
  <line x1="320" y1="120" x2="340" y2="120" stroke="#0000ff" stroke-width="2" stroke-dasharray="5,3"/>
  <text x="345" y="123" font-family="Arial" font-size="10" text-anchor="start">Standard QM</text>
  <line x1="320" y1="135" x2="340" y2="135" stroke="#ff0000" stroke-width="2"/>
  <text x="345" y="138" font-family="Arial" font-size="10" text-anchor="start">Information Ontology</text>
  <circle cx="330" cy="150" r="3" fill="#000000" stroke="none"/>
  <line x1="325" y1="150" x2="335" y2="150" stroke="#000000" stroke-width="1"/>
  <text x="345" y="153" font-family="Arial" font-size="10" text-anchor="start">Experimental Data</text>
  
  <!-- Residual plot -->
  <rect x="570" y="100" width="190" height="140" fill="#ffffff" stroke="#000000" stroke-width="1"/>
  <text x="665" y="115" font-family="Arial" font-size="12" text-anchor="middle">Residuals</text>
  
  <!-- Coordinate axes for residuals -->
  <line x1="590" y1="170" x2="740" y2="170" stroke="#000000" stroke-width="1"/>
  <line x1="590" y1="130" x2="590" y2="210" stroke="#000000" stroke-width="1"/>
  <line x1="585" y1="150" x2="595" y2="150" stroke="#888888" stroke-width="1"/>
  <line x1="585" y1="190" x2="595" y2="190" stroke="#888888" stroke-width="1"/>
  <text x="665" y="220" font-family="Arial" font-size="10" text-anchor="middle">Position (μm)</text>
  <text x="580" y="170" font-family="Arial" font-size="10" text-anchor="end">0</text>
  <text x="580" y="150" font-family="Arial" font-size="10" text-anchor="end">+1σ</text>
  <text x="580" y="190" font-family="Arial" font-size="10" text-anchor="end">-1σ</text>
  
  <!-- Standard QM residuals -->
  <circle cx="610" cy="180" r="3" fill="#0000ff" stroke="none"/>
  <circle cx="640" cy="150" r="3" fill="#0000ff" stroke="none"/>
  <circle cx="670" cy="190" r="3" fill="#0000ff" stroke="none"/>
  <circle cx="700" cy="145" r="3" fill="#0000ff" stroke="none"/>
  <circle cx="730" cy="185" r="3" fill="#0000ff" stroke="none"/>
  
  <!-- Information ontology residuals -->
  <circle cx="610" cy="172" r="3" fill="#ff0000" stroke="none"/>
  <circle cx="640" cy="168" r="3" fill="#ff0000" stroke="none"/>
  <circle cx="670" cy="174" r="3" fill="#ff0000" stroke="none"/>
  <circle cx="700" cy="166" r="3" fill="#ff0000" stroke="none"/>
  <circle cx="730" cy="172" r="3" fill="#ff0000" stroke="none"/>
  
  <!-- Legend for residuals -->
  <circle cx="610" cy="125" r="3" fill="#0000ff" stroke="none"/>
  <text x="615" y="128" font-family="Arial" font-size="8" text-anchor="start">Standard QM (χ² = 12.8)</text>
  <circle cx="700" cy="125" r="3" fill="#ff0000" stroke="none"/>
  <text x="705" y="128" font-family="Arial" font-size="8" text-anchor="start">Info. Ont. (χ² = 3.2)</text>
  
  <!-- Mathematical formula -->
  <text x="390" y="245" font-family="Arial" font-size="12" text-anchor="middle" font-style="italic">P(x) = |ψ(x)|² + α·d²|ψ(x)|²/dx²</text>
  <text x="390" y="265" font-family="Arial" font-size="12" text-anchor="middle">α = (1.35 ± 0.2) × 10⁻¹⁵ m²</text>
  
  <!-- Panel B: Gravitational Wave Phase Shift -->
  <rect x="20" y="300" width="760" height="220" fill="#f8f8f8" stroke="#000000" stroke-width="1"/>
  <text x="400" y="320" font-family="Arial" font-size="18" text-anchor="middle" font-weight="bold">B: Gravitational Wave Phase Shift</text>
  
  <!-- Gravitational wave detector schematic -->
  <rect x="40" y="340" width="160" height="140" fill="#f0f0f0" stroke="#000000" stroke-width="1"/>
  <text x="120" y="355" font-family="Arial" font-size="12" text-anchor="middle">Gravitational Wave Detection</text>
  
  <!-- Source -->
  <circle cx="70" cy="400" r="20" fill="#666666" stroke="#000000" stroke-width="1"/>
  <text x="70" y="385" font-family="Arial" font-size="10" text-anchor="middle">Source</text>
  
  <!-- Waves -->
  <path d="M95 400 C100 390,110 410,115 400 C120 390,130 410,135 400 C140 390,150 410,155 400" stroke="#000000" stroke-width="1" fill="none"/>
  
  <!-- Detector -->
  <rect x="160" y="380" width="30" height="40" fill="#cccccc" stroke="#000000" stroke-width="1"/>
  <text x="175" y="435" font-family="Arial" font-size="10" text-anchor="middle">Detector</text>
  
  <!-- Phase shift graph -->
  <rect x="230" y="340" width="320" height="140" fill="#ffffff" stroke="#000000" stroke-width="1"/>
  
  <!-- Coordinate axes -->
  <line x1="250" y1="440" x2="530" y2="440" stroke="#000000" stroke-width="1"/>
  <line x1="250" y1="440" x2="250" y2="360" stroke="#000000" stroke-width="1"/>
  <text x="390" y="455" font-family="Arial" font-size="12" text-anchor="middle">Source Mass (M☉)</text>
  <text x="235" y="400" font-family="Arial" font-size="12" text-anchor="middle" transform="rotate(-90,235,400)">Phase Shift (rad)</text>
  
  <!-- Standard GR prediction -->
  <path d="M250 440 C300 438,350 435,400 430 C450 425,500 415,530 410" stroke="#0000ff" stroke-width="2" stroke-dasharray="5,3" fill="none"/>
  
  <!-- Information ontology prediction -->
  <path d="M250 440 C300 435,350 425,400 410 C450 390,500 365,530 340" stroke="#ff0000" stroke-width="2" fill="none"/>
  
  <!-- Detector sensitivity thresholds -->
  <line x1="250" y1="420" x2="530" y2="420" stroke="#00cc00" stroke-width="1" stroke-dasharray="3,2"/>
  <text x="535" y="423" font-family="Arial" font-size="10" text-anchor="start">LIGO</text>
  <line x1="250" y1="400" x2="530" y2="400" stroke="#006600" stroke-width="1" stroke-dasharray="3,2"/>
  <text x="535" y="403" font-family="Arial" font-size="10" text-anchor="start">LISA</text>
  <line x1="250" y1="380" x2="530" y2="380" stroke="#003300" stroke-width="1" stroke-dasharray="3,2"/>
  <text x="535" y="383" font-family="Arial" font-size="10" text-anchor="start">Next-Gen</text>
  
  <!-- Legend -->
  <line x1="300" y1="370" x2="320" y2="370" stroke="#0000ff" stroke-width="2" stroke-dasharray="5,3"/>
  <text x="325" y="373" font-family="Arial" font-size="10" text-anchor="start">Standard GR</text>
  <line x1="300" y1="385" x2="320" y2="385" stroke="#ff0000" stroke-width="2"/>
  <text x="325" y="388" font-family="Arial" font-size="10" text-anchor="start">Information Ontology</text>
  
  <!-- Detector comparison -->
  <rect x="570" y="340" width="190" height="140" fill="#ffffff" stroke="#000000" stroke-width="1"/>
  <text x="665" y="355" font-family="Arial" font-size="12" text-anchor="middle">Detector Sensitivity</text>
  
  <!-- Bar graph -->
  <rect x="590" y="410" width="30" height="30" fill="#0000ff" stroke="#000000" stroke-width="1" fill-opacity="0.5"/>
  <rect x="590" y="380" width="30" height="30" fill="#ff0000" stroke="#000000" stroke-width="1" fill-opacity="0.5"/>
  <text x="605" y="450" font-family="Arial" font-size="10" text-anchor="middle">LIGO</text>
  
  <rect x="630" y="400" width="30" height="40" fill="#0000ff" stroke="#000000" stroke-width="1" fill-opacity="0.5"/>
  <rect x="630" y="360" width="30" height="40" fill="#ff0000" stroke="#000000" stroke-width="1" fill-opacity="0.5"/>
  <text x="645" y="450" font-family="Arial" font-size="10" text-anchor="middle">LISA</text>
  
  <rect x="670" y="390" width="30" height="50" fill="#0000ff" stroke="#000000" stroke-width="1" fill-opacity="0.5"/>
  <rect x="670" y="370" width="30" height="20" fill="#ff0000" stroke="#000000" stroke-width="1" fill-opacity="0.5"/>
  <text x="685" y="450" font-family="Arial" font-size="10" text-anchor="middle">Next-Gen</text>
  
  <line x1="580" y1="370" x2="760" y2="370" stroke="#000000" stroke-width="1" stroke-dasharray="3,2"/>
  <text x="750" y="365" font-family="Arial" font-size="8" text-anchor="end">Detection Threshold</text>
  
  <!-- Mathematical formula -->
  <text x="390" y="485" font-family="Arial" font-size="12" text-anchor="middle" font-style="italic">Δϕ = (G·ħ/c⁵)·M·ω·ln(d/r_s)</text>
  
  <!-- Panel C: Black Hole Radiation Spectrum -->
  <rect x="20" y="540" width="760" height="220" fill="#f8f8f8" stroke="#000000" stroke-width="1"/>
  <text x="400" y="560" font-family="Arial" font-size="18" text-anchor="middle" font-weight="bold">C: Black Hole Radiation Spectrum</text>
  
  <!-- Black hole illustration -->
  <rect x="40" y="580" width="160" height="140" fill="#000000" stroke="#000000" stroke-width="1"/>
  <circle cx="120" cy="650" r="40" fill="#000000" stroke="#ffffff" stroke-width="2"/>
  <ellipse cx="120" cy="650" rx="60" ry="15" fill="none" stroke="#3366cc" stroke-width="1" stroke-dasharray="2,1"/>
  
  <!-- Radiation emissions -->
  <path d="M120 610 L110 590 L120 600 L130 580" stroke="#ffcc00" stroke-width="1" fill="none"/>
  <path d="M160 640 L180 630 L175 645 L195 650" stroke="#ffcc00" stroke-width="1" fill="none"/>
  <path d="M150 680 L160 695 L145 690 L155 710" stroke="#ffcc00" stroke-width="1" fill="none"/>
  <path d="M80 670 L60 680 L70 665 L50 665" stroke="#ffcc00" stroke-width="1" fill="none"/>
  
  <text x="120" y="560" font-family="Arial" font-size="12" text-anchor="middle" fill="#ffffff">Black Hole Radiation</text>
  
  <!-- Spectral graph -->
  <rect x="230" y="580" width="320" height="140" fill="#ffffff" stroke="#000000" stroke-width="1"/>
  
  <!-- Coordinate axes -->
  <line x1="250" y1="680" x2="530" y2="680" stroke="#000000" stroke-width="1"/>
  <line x1="250" y1="680" x2="250" y2="600" stroke="#000000" stroke-width="1"/>
  <text x="390" y="695" font-family="Arial" font-size="12" text-anchor="middle">Frequency (ω)</text>
  <text x="235" y="640" font-family="Arial" font-size="12" text-anchor="middle" transform="rotate(-90,235,640)">Spectral Density</text>
  
  <!-- Standard Hawking radiation -->
  <path d="M250 680 C300 660,350 630,400 615 C450 605,500 600,530 595" stroke="#0000ff" stroke-width="2" stroke-dasharray="5,3" fill="none"/>
  
  <!-- Information ontology modified spectrum -->
  <path d="M250 680 C300 655,350 620,400 600 C450 580,500 570,530 555" stroke="#ff0000" stroke-width="2" fill="none"/>
  
  <!-- Highlighted region -->
  <rect x="430" y="555" width="70" height="40" fill="#ffff00" fill-opacity="0.3" stroke="#ff9900" stroke-width="1" stroke-dasharray="3,2"/>
  <text x="465" y="620" font-family="Arial" font-size="10" text-anchor="middle">Maximum Divergence</text>
  
  <!-- Legend -->
  <line x1="300" y1="610" x2="320" y2="610" stroke="#0000ff" stroke-width="2" stroke-dasharray="5,3"/>
  <text x="325" y="613" font-family="Arial" font-size="10" text-anchor="start">Standard Hawking</text>
  <line x1="300" y1="625" x2="320" y2="625" stroke="#ff0000" stroke-width="2"/>
  <text x="325" y="628" font-family="Arial" font-size="10" text-anchor="start">Information Ontology</text>
  
  <!-- Observational strategy -->
  <rect x="570" y="580" width="190" height="140" fill="#ffffff" stroke="#000000" stroke-width="1"/>
  <text x="665" y="595" font-family="Arial" font-size="12" text-anchor="middle">Observation Strategy</text>
  
  <!-- Telescopes -->
  <circle cx="600" cy="630" r="15" fill="#cccccc" stroke="#000000" stroke-width="1"/>
  <path d="M600 645 L600 660" stroke="#000000" stroke-width="1"/>
  <text x="600" y="675" font-family="Arial" font-size="10" text-anchor="middle">Current</text>
  
  <circle cx="665" cy="630" r="20" fill="#cccccc" stroke="#000000" stroke-width="1"/>
  <path d="M665 650 L665 660" stroke="#000000" stroke-width="1"/>
  <text x="665" y="675" font-family="Arial" font-size="10" text-anchor="middle">Next-Gen</text>
  
  <circle cx="730" cy="630" r="25" fill="#cccccc" stroke="#000000" stroke-width="1"/>
  <path d="M730 655 L730 660" stroke="#000000" stroke-width="1"/>
  <text x="730" y="675" font-family="Arial" font-size="10" text-anchor="middle">Future</text>
  
  <text x="665" y="700" font-family="Arial" font-size="10" text-anchor="middle">Space Telescope Sensitivity</text>
  
  <!-- Detection threshold -->
  <line x1="590" y1="640" x2="740" y2="620" stroke="#ff0000" stroke-width="1" stroke-dasharray="3,1"/>
  <text x="665" y="615" font-family="Arial" font-size="10" text-anchor="middle">Detection Threshold</text>
  
  <!-- Mathematical formula -->
  <text x="390" y="725" font-family="Arial" font-size="12" text-anchor="middle" font-style="italic">S(ω) = (ħω³/4π²c²(e^(ħω/k_BT) - 1))·(1 + αħ/Mc²)</text>
  
  <!-- Figure Caption -->
  <text x="400" y="770" font-family="Arial" font-size="14" text-anchor="middle" font-style="italic">Figure 2. Experimental predictions and preliminary verification of information ontology</text>
</svg> 