<?xml version="1.0" encoding="UTF-8" standalone="no"?>
<svg width="800" height="800" xmlns="http://www.w3.org/2000/svg" xmlns:xlink="http://www.w3.org/1999/xlink">
  <!-- Figure 1: Information Operations and Physical Phenomena -->
  <title>Information Operations as Fundamental Physical Processes</title>
  
  <!-- Background and border -->
  <rect x="0" y="0" width="800" height="800" fill="#ffffff" stroke="#000000" stroke-width="2"/>
  
  <!-- Figure Title -->
  <text x="400" y="30" font-family="Arial" font-size="24" text-anchor="middle" font-weight="bold">Information Operations as Fundamental Physical Processes</text>
  
  <!-- Grid lines -->
  <line x1="400" y1="50" x2="400" y2="750" stroke="#888888" stroke-width="1" stroke-dasharray="5,5"/>
  <line x1="0" y1="400" x2="800" y2="400" stroke="#888888" stroke-width="1" stroke-dasharray="5,5"/>
  
  <!-- Panel A: XOR and Quantum Superposition -->
  <rect x="20" y="70" width="360" height="310" fill="#f8f8f8" stroke="#000000" stroke-width="1"/>
  <text x="200" y="90" font-family="Arial" font-size="18" text-anchor="middle" font-weight="bold">A: XOR and Quantum Superposition</text>
  
  <!-- XOR operation visualization -->
  <circle cx="80" cy="150" r="25" fill="#66aaff" stroke="#000000" stroke-width="1"/>
  <text x="80" y="155" font-family="Arial" font-size="14" text-anchor="middle">|A⟩</text>
  
  <circle cx="160" cy="150" r="25" fill="#ff6666" stroke="#000000" stroke-width="1"/>
  <text x="160" y="155" font-family="Arial" font-size="14" text-anchor="middle">|B⟩</text>
  
  <text x="120" y="150" font-family="Arial" font-size="24" text-anchor="middle">⊕</text>
  
  <path d="M110 180 C120 220,120 220,130 180" stroke="#000000" fill="none" stroke-width="2"/>
  <text x="120" y="210" font-family="Arial" font-size="16" text-anchor="middle">XOR</text>
  
  <circle cx="120" cy="250" r="30" fill="#aa66ee" stroke="#000000" stroke-width="1"/>
  <text x="120" y="255" font-family="Arial" font-size="14" text-anchor="middle">|A⊕B⟩</text>
  
  <!-- Wavefunction representation -->
  <text x="280" y="130" font-family="Arial" font-size="16" text-anchor="middle">Standard Quantum</text>
  <text x="280" y="160" font-family="Arial" font-size="14" text-anchor="middle">|ψ⟩ = α|0⟩ + β|1⟩</text>
  
  <!-- Interference pattern -->
  <path d="M200 300 C220 280,240 320,260 280 C280 240,300 350,340 280" stroke="#6633dd" fill="none" stroke-width="2"/>
  <text x="270" y="340" font-family="Arial" font-size="14" text-anchor="middle">Interference Pattern</text>
  
  <!-- Panel B: SHIFT and Quantum Measurement -->
  <rect x="420" y="70" width="360" height="310" fill="#f8f8f8" stroke="#000000" stroke-width="1"/>
  <text x="600" y="90" font-family="Arial" font-size="18" text-anchor="middle" font-weight="bold">B: SHIFT and Quantum Measurement</text>
  
  <!-- SHIFT operation visualization -->
  <circle cx="500" cy="150" r="30" fill="#aa66ee" stroke="#000000" stroke-width="1"/>
  <text x="500" y="155" font-family="Arial" font-size="14" text-anchor="middle">|ψ⟩</text>
  
  <path d="M540 150 L590 150" stroke="#000000" stroke-width="2" marker-end="url(#arrow)"/>
  <text x="565" y="140" font-family="Arial" font-size="16" text-anchor="middle">SHIFT</text>
  
  <!-- Measurement result -->
  <circle cx="640" cy="150" r="25" fill="#66aaff" stroke="#000000" stroke-width="1"/>
  <text x="640" y="155" font-family="Arial" font-size="14" text-anchor="middle">|0⟩</text>
  
  <circle cx="700" cy="150" r="25" fill="#ff6666" stroke="#000000" stroke-width="1" stroke-dasharray="5,5" opacity="0.4"/>
  <text x="700" y="155" font-family="Arial" font-size="14" text-anchor="middle">|1⟩</text>
  
  <!-- Observer -->
  <circle cx="640" cy="230" r="20" fill="#ffcc66" stroke="#000000" stroke-width="1"/>
  <text x="640" y="235" font-family="Arial" font-size="14" text-anchor="middle">O</text>
  <path d="M640 190 C640 200,640 200,640 210" stroke="#000000" fill="none" stroke-width="1" marker-end="url(#arrow)"/>
  <text x="650" y="200" font-family="Arial" font-size="14" text-anchor="middle">Observer</text>
  
  <text x="600" y="300" font-family="Arial" font-size="14" text-anchor="middle">Information Extraction</text>
  <text x="600" y="320" font-family="Arial" font-size="14" text-anchor="middle">without Collapse Postulate</text>
  
  <!-- Panel C: Information Geometry and Spacetime -->
  <rect x="20" y="420" width="360" height="310" fill="#f8f8f8" stroke="#000000" stroke-width="1"/>
  <text x="200" y="440" font-family="Arial" font-size="18" text-anchor="middle" font-weight="bold">C: Information Geometry and Spacetime</text>
  
  <!-- Information network -->
  <circle cx="70" cy="500" r="10" fill="#3366cc" stroke="#000000" stroke-width="1"/>
  <circle cx="120" cy="480" r="10" fill="#3366cc" stroke="#000000" stroke-width="1"/>
  <circle cx="150" cy="530" r="10" fill="#3366cc" stroke="#000000" stroke-width="1"/>
  <circle cx="190" cy="490" r="10" fill="#3366cc" stroke="#000000" stroke-width="1"/>
  <circle cx="210" cy="550" r="10" fill="#3366cc" stroke="#000000" stroke-width="1"/>
  <circle cx="240" cy="500" r="10" fill="#3366cc" stroke="#000000" stroke-width="1"/>
  <circle cx="280" cy="520" r="10" fill="#3366cc" stroke="#000000" stroke-width="1"/>
  <circle cx="320" cy="490" r="10" fill="#3366cc" stroke="#000000" stroke-width="1"/>
  
  <line x1="70" y1="500" x2="120" y2="480" stroke="#000000" stroke-width="1"/>
  <line x1="70" y1="500" x2="150" y2="530" stroke="#000000" stroke-width="1"/>
  <line x1="120" y1="480" x2="190" y2="490" stroke="#000000" stroke-width="1"/>
  <line x1="120" y1="480" x2="150" y2="530" stroke="#000000" stroke-width="1"/>
  <line x1="150" y1="530" x2="210" y2="550" stroke="#000000" stroke-width="1"/>
  <line x1="150" y1="530" x2="190" y2="490" stroke="#000000" stroke-width="1"/>
  <line x1="190" y1="490" x2="240" y2="500" stroke="#000000" stroke-width="1"/>
  <line x1="210" y1="550" x2="240" y2="500" stroke="#000000" stroke-width="1"/>
  <line x1="240" y1="500" x2="280" y2="520" stroke="#000000" stroke-width="1"/>
  <line x1="280" y1="520" x2="320" y2="490" stroke="#000000" stroke-width="1"/>
  
  <text x="80" y="600" font-family="Arial" font-size="14" text-anchor="middle">Information Network</text>
  
  <!-- Spacetime curvature -->
  <ellipse cx="200" cy="650" rx="130" ry="30" fill="none" stroke="#000000" stroke-width="1" stroke-dasharray="5,5"/>
  <ellipse cx="200" cy="650" rx="130" ry="50" fill="none" stroke="#000000" stroke-width="1"/>
  <text x="200" y="700" font-family="Arial" font-size="14" text-anchor="middle">Emergent Spacetime Curvature</text>
  
  <!-- Panel D: Information Cascade and Entropy -->
  <rect x="420" y="420" width="360" height="310" fill="#f8f8f8" stroke="#000000" stroke-width="1"/>
  <text x="600" y="440" font-family="Arial" font-size="18" text-anchor="middle" font-weight="bold">D: Information Cascade and Entropy</text>
  
  <!-- Ordered state -->
  <rect x="460" y="480" width="30" height="30" fill="#3366cc" stroke="#000000" stroke-width="1"/>
  <rect x="490" y="480" width="30" height="30" fill="#3366cc" stroke="#000000" stroke-width="1"/>
  <rect x="520" y="480" width="30" height="30" fill="#3366cc" stroke="#000000" stroke-width="1"/>
  <rect x="550" y="480" width="30" height="30" fill="#3366cc" stroke="#000000" stroke-width="1"/>
  <rect x="580" y="480" width="30" height="30" fill="#3366cc" stroke="#000000" stroke-width="1"/>
  <rect x="610" y="480" width="30" height="30" fill="#3366cc" stroke="#000000" stroke-width="1"/>
  <rect x="640" y="480" width="30" height="30" fill="#3366cc" stroke="#000000" stroke-width="1"/>
  <rect x="670" y="480" width="30" height="30" fill="#3366cc" stroke="#000000" stroke-width="1"/>
  
  <text x="570" y="470" font-family="Arial" font-size="14" text-anchor="middle">Low Entropy (Ordered State)</text>
  
  <!-- XOR-SHIFT operations -->
  <path d="M570 520 L570 540" stroke="#000000" stroke-width="1.5" marker-end="url(#arrow)"/>
  <text x="580" y="530" font-family="Arial" font-size="12" text-anchor="left">XOR-SHIFT</text>
  
  <!-- Partially disordered state -->
  <rect x="460" y="550" width="30" height="30" fill="#6699cc" stroke="#000000" stroke-width="1"/>
  <rect x="490" y="550" width="30" height="30" fill="#3366cc" stroke="#000000" stroke-width="1"/>
  <rect x="520" y="550" width="30" height="30" fill="#6699cc" stroke="#000000" stroke-width="1"/>
  <rect x="550" y="550" width="30" height="30" fill="#3366cc" stroke="#000000" stroke-width="1"/>
  <rect x="580" y="550" width="30" height="30" fill="#6699cc" stroke="#000000" stroke-width="1"/>
  <rect x="610" y="550" width="30" height="30" fill="#3366cc" stroke="#000000" stroke-width="1"/>
  <rect x="640" y="550" width="30" height="30" fill="#6699cc" stroke="#000000" stroke-width="1"/>
  <rect x="670" y="550" width="30" height="30" fill="#3366cc" stroke="#000000" stroke-width="1"/>
  
  <!-- Second XOR-SHIFT -->
  <path d="M570 590 L570 610" stroke="#000000" stroke-width="1.5" marker-end="url(#arrow)"/>
  <text x="580" y="600" font-family="Arial" font-size="12" text-anchor="left">XOR-SHIFT</text>
  
  <!-- Highly disordered state -->
  <rect x="460" y="620" width="30" height="30" fill="#99ccff" stroke="#000000" stroke-width="1"/>
  <rect x="490" y="620" width="30" height="30" fill="#6699cc" stroke="#000000" stroke-width="1"/>
  <rect x="520" y="620" width="30" height="30" fill="#3366cc" stroke="#000000" stroke-width="1"/>
  <rect x="550" y="620" width="30" height="30" fill="#99ccff" stroke="#000000" stroke-width="1"/>
  <rect x="580" y="620" width="30" height="30" fill="#6699cc" stroke="#000000" stroke-width="1"/>
  <rect x="610" y="620" width="30" height="30" fill="#3366cc" stroke="#000000" stroke-width="1"/>
  <rect x="640" y="620" width="30" height="30" fill="#99ccff" stroke="#000000" stroke-width="1"/>
  <rect x="670" y="620" width="30" height="30" fill="#6699cc" stroke="#000000" stroke-width="1"/>
  
  <text x="570" y="670" font-family="Arial" font-size="14" text-anchor="middle">High Entropy (Information Spread)</text>
  <text x="570" y="690" font-family="Arial" font-size="14" text-anchor="middle">S = -kB Σ pi ln pi</text>
  
  <!-- Figure Caption -->
  <text x="400" y="770" font-family="Arial" font-size="14" text-anchor="middle" font-style="italic">Figure 1. Information operations as the foundation of physical phenomena</text>
  
  <!-- Arrow marker definition -->
  <defs>
    <marker id="arrow" markerWidth="10" markerHeight="10" refX="8" refY="3" orient="auto" markerUnits="strokeWidth">
      <path d="M0,0 L0,6 L9,3 z" fill="#000000"/>
    </marker>
  </defs>
</svg> 