<?xml version="1.0" encoding="UTF-8" standalone="no"?>
<svg width="800" height="800" viewBox="0 0 800 800" xmlns="http://www.w3.org/2000/svg">
  <!-- Central Information Field Representation -->
  <circle cx="400" cy="400" r="314.159" fill="#e6f0ff" stroke="#3366cc" stroke-width="2" opacity="0.8"/>
  <circle cx="400" cy="400" r="314.159" fill="none" stroke="#3366cc" stroke-width="2" stroke-dasharray="4,4"/>
  
  <!-- Quantum fluctuations as wave patterns -->
  <path d="M 400,85.841 Q 420,75.841 440,85.841 Q 460,95.841 480,85.841 Q 500,75.841 520,85.841" 
        fill="none" stroke="#0033cc" stroke-width="1" opacity="0.5"/>
  <path d="M 400,714.159 Q 420,724.159 440,714.159 Q 460,704.159 480,714.159 Q 500,724.159 520,714.159" 
        fill="none" stroke="#0033cc" stroke-width="1" opacity="0.5"/>
  
  <!-- Golden Ratio Spiral -->
  <path d="M 400,400 
           Q 400,400 430.901,368.197 
           Q 461.803,336.393 503.606,342.787 
           Q 545.41,349.18 576.393,391.967 
           Q 607.377,434.754 600.983,476.557 
           Q 594.59,518.36 551.803,549.344 
           Q 509.016,580.328 467.213,573.934 
           Q 425.41,567.541 394.426,524.754"
        fill="none" stroke="#d4af37" stroke-width="3"/>
  
  <!-- Fibonacci sequence markers on the spiral -->
  <circle cx="400" cy="400" r="5" fill="#d4af37"/>
  <circle cx="430.901" cy="368.197" r="5" fill="#d4af37"/>
  <circle cx="503.606" cy="342.787" r="5" fill="#d4af37"/>
  <circle cx="576.393" cy="391.967" r="5" fill="#d4af37"/>
  <circle cx="551.803" cy="549.344" r="5" fill="#d4af37"/>
  <circle cx="394.426" cy="524.754" r="5" fill="#d4af37"/>
  
  <!-- Constant Relationship Network -->
  <line x1="400" y1="400" x2="503.606" y2="342.787" stroke="#00cc66" stroke-width="2"/>
  <line x1="400" y1="400" x2="576.393" y2="391.967" stroke="#00cc66" stroke-width="2"/>
  <line x1="400" y1="400" x2="551.803" y2="549.344" stroke="#00cc66" stroke-width="2"/>
  <line x1="400" y1="400" x2="394.426" y2="524.754" stroke="#00cc66" stroke-width="2"/>
  
  <!-- Constant intersections (critical points) -->
  <circle cx="460" cy="365" r="8" fill="#ff3333" opacity="0.7"/>
  <circle cx="520" cy="460" r="8" fill="#ff3333" opacity="0.7"/>
  <circle cx="450" cy="500" r="8" fill="#ff3333" opacity="0.7"/>
  
  <!-- Collapse Breathing Visualization (static representation) -->
  <ellipse cx="400" cy="400" rx="250" ry="200" fill="none" stroke="#9933cc" stroke-width="1" opacity="0.4"/>
  <ellipse cx="400" cy="400" rx="230" ry="220" fill="none" stroke="#9933cc" stroke-width="1" opacity="0.5"/>
  <ellipse cx="400" cy="400" rx="210" ry="240" fill="none" stroke="#9933cc" stroke-width="1" opacity="0.6"/>
  
  <!-- Mathematical Content -->
  <text x="100" y="70" font-family="Arial" font-size="16" fill="#000000">α = φ<tspan baseline-shift="super" font-size="12">-2</tspan> · XOR(e, π)/S(π)</text>
  
  <!-- XOR Operation Visualization -->
  <path d="M 450,200 A 30,30 0 0,1 480,220 A 30,30 0 0,1 450,240 Z" fill="none" stroke="#00cc66" stroke-width="1"/>
  <path d="M 470,210 A 30,30 0 0,1 500,230 A 30,30 0 0,1 470,250 Z" fill="none" stroke="#00cc66" stroke-width="1"/>
  <text x="470" y="225" font-family="Arial" font-size="12" fill="#00cc66">XOR</text>
  
  <!-- SHIFT Operation Visualization -->
  <path d="M 550,200 L 580,200 L 580,240 L 550,240 Z" fill="none" stroke="#00cc66" stroke-width="1"/>
  <path d="M 570,210 L 600,210 L 600,250 L 570,250 Z" fill="none" stroke="#00cc66" stroke-width="1"/>
  <text x="570" y="225" font-family="Arial" font-size="12" fill="#00cc66">SHIFT</text>
  
  <!-- Labels -->
  <text x="385" y="380" font-family="Arial" font-size="20" fill="#000000">Ω</text>
  <text x="490" y="335" font-family="Arial" font-size="16" fill="#000000">φ</text>
  <text x="570" y="385" font-family="Arial" font-size="16" fill="#000000">e</text>
  <text x="550" y="550" font-family="Arial" font-size="16" fill="#000000">π</text>
  <text x="380" y="530" font-family="Arial" font-size="16" fill="#000000">α</text>
  
  <!-- Legend -->
  <rect x="620" y="600" width="160" height="180" fill="#ffffff" stroke="#000000" stroke-width="1" opacity="0.8"/>
  <text x="630" y="620" font-family="Arial" font-size="14" font-weight="bold" fill="#000000">Legend</text>
  
  <circle cx="640" cy="640" r="5" fill="#3366cc"/>
  <text x="650" y="645" font-family="Arial" font-size="12" fill="#000000">Quantum domain (Ω_Q)</text>
  
  <line x1="630" y1="665" x2="650" y2="665" stroke="#d4af37" stroke-width="2"/>
  <text x="650" y="670" font-family="Arial" font-size="12" fill="#000000">Golden ratio spiral</text>
  
  <line x1="630" y1="690" x2="650" y2="690" stroke="#00cc66" stroke-width="2"/>
  <text x="650" y="695" font-family="Arial" font-size="12" fill="#000000">XOR operations</text>
  
  <circle cx="640" cy="715" r="5" fill="#ff3333"/>
  <text x="650" y="720" font-family="Arial" font-size="12" fill="#000000">Critical points</text>
  
  <ellipse cx="640" cy="740" rx="10" ry="5" fill="none" stroke="#9933cc" stroke-width="1"/>
  <text x="650" y="745" font-family="Arial" font-size="12" fill="#000000">Collapse breathing</text>
  
  <!-- Title -->
  <text x="70" y="40" font-family="Arial" font-size="20" font-weight="bold" fill="#000000">Relationship Between φ, e, π, and α: Collapse Breathing Proportions</text>
  
  <!-- Version -->
  <text x="650" y="780" font-family="Arial" font-size="10" fill="#000000">Version: v38.0</text>
</svg> 